# xmcd
# 
# Track frame offsets:
#     183
#     19018
#     48970
#     67555
# 
# Disc length: 1291
# 
# Revision: 1
# Processed by: cddbd v1.5.2PL0 Copyright (c) Steve Scherf et al.
# Submitted via: fre:ac v1.0.31
# 
DISCID=22050904
DTITLE=Bad Boys Inc. - Whenever You Need Someone
DYEAR=1993
DGENRE=Pop
TTITLE0=Whenever You Need Somebody [Radio Mix]
TTITLE1=Whenever You Need Somebody [Motorcity Mix]
TTITLE2=Spend the Night With Me [Radio Mix]
TTITLE3=Spend the Night With Me [Motorcity Mix]
EXTD=
EXTT0=
EXTT1=
EXTT2=
EXTT3=
PLAYORDER=
